<svg width="28" height="28" viewBox="0 0 28 28" fill="none" xmlns="http://www.w3.org/2000/svg">
<path d="M14 26.6C20.9588 26.6 26.6 20.9588 26.6 14C26.6 7.04121 20.9588 1.39999 14 1.39999C7.04124 1.39999 1.40002 7.04121 1.40002 14C1.40002 20.9588 7.04124 26.6 14 26.6Z" fill="#120505" fill-opacity="0.94" stroke="#6A2A1A" stroke-width="0.933333"/>
<path d="M14 22.8667C18.8969 22.8667 22.8666 18.8969 22.8666 14C22.8666 9.10307 18.8969 5.13333 14 5.13333C9.10304 5.13333 5.1333 9.10307 5.1333 14C5.1333 18.8969 9.10304 22.8667 14 22.8667Z" stroke="#6A2A1A" stroke-width="0.466667" stroke-dasharray="2.8 1.87"/>
<path d="M7.93335 7.93332L20.0667 20.0667" stroke="#A04030" stroke-width="1.49333" stroke-linecap="round"/>
<path d="M20.0667 7.93332L7.93335 20.0667" stroke="#A04030" stroke-width="1.49333" stroke-linecap="round"/>
<path d="M6.53333 10.2667L10.2667 6.53333" stroke="#A04030" stroke-width="0.933333" stroke-linecap="round"/>
<path d="M17.7334 21.4667L21.4667 17.7333" stroke="#A04030" stroke-width="0.933333" stroke-linecap="round"/>
<path d="M14 16.0533C15.134 16.0533 16.0533 15.134 16.0533 14C16.0533 12.866 15.134 11.9467 14 11.9467C12.866 11.9467 11.9467 12.866 11.9467 14C11.9467 15.134 12.866 16.0533 14 16.0533Z" fill="#A04030" fill-opacity="0.3"/>
</svg>
